<?xml version="1.0" encoding="utf-8"?>
<!-- Generator: Adobe Illustrator 26.0.0, SVG Export Plug-In . SVG Version: 6.00 Build 0)  -->
<svg version="1.1" id="Layer_1" xmlns="http://www.w3.org/2000/svg" xmlns:xlink="http://www.w3.org/1999/xlink" x="0px" y="0px"
	 viewBox="0 0 90 65" style="enable-background:new 0 0 90 65;" xml:space="preserve">
<style type="text/css">
	.st0{fill:none;stroke:#000000;stroke-width:2;stroke-miterlimit:10;}
</style>
<path class="st0" d="M22.16,15.22c7.29,9.48,14.58,18.97,21.87,28.45c8-10.84,16-21.68,24-32.52"/>
<path class="st0" d="M35.37,51.66c-2.5,0.13-5.13-6.23-5.76-11.18c-0.73-5.68,1.07-10.31,2.22-12.68l8.65,11.26
	C39.55,46.18,37.62,51.54,35.37,51.66z"/>
<path class="st0" d="M56.58,26.68c2.42,15.6,3.04,20.81,0.81,23.18c-1.96,2.08-4.43-3.03-8.75-12.43
	C51.29,33.85,53.93,30.27,56.58,26.68z"/>
<path class="st0" d="M33.02,32.89c-0.48,0.95-1.04,2.35-1.26,4.11c-0.04,0.31-0.58,4.98,0.97,5.61c1.68,0.69,4.35-3.91,5.34-3.38
	c1.25,0.67-1.3,8.84-2.38,8.67c-1.26-0.2-0.09-11.81-0.74-11.87c-0.34-0.03-1.01,3.17-2.13,11.23"/>
<path class="st0" d="M55.03,33.32c1.98,9.02,1.86,11.8,1.06,12.1c-1,0.37-3.77-2.95-4.11-6.58c-0.16-1.71,0.22-3.48,0.53-3.48
	c0.54-0.01,0.78,5.18,1.35,5.18c0.74,0,1.35-8.48,1.45-8.47c0.07,0.01-0.52,4.06-0.15,8.9c0.22,2.85,0.72,5.17,1.11,6.73"/>
</svg>
