<?xml version="1.0" encoding="utf-8"?>
<!-- Generator: Adobe Illustrator 26.0.0, SVG Export Plug-In . SVG Version: 6.00 Build 0)  -->
<svg version="1.1" id="Layer_1" xmlns="http://www.w3.org/2000/svg" xmlns:xlink="http://www.w3.org/1999/xlink" x="0px" y="0px"
	 viewBox="0 0 90 65" style="enable-background:new 0 0 90 65;" xml:space="preserve">
<style type="text/css">
	.st0{fill:none;stroke:#000000;stroke-width:2;stroke-miterlimit:10;}
	.st1{stroke:#000000;stroke-miterlimit:10;}
</style>
<path class="st0" d="M29.38,21.77c-4.26-0.74-8.09,3.1-9.68,6.19c-3.11,6.07-0.65,15.24,4.26,16.65C28.8,46,35.94,39.82,36.35,32.99
	C36.62,28.53,34.08,22.59,29.38,21.77z"/>
<path class="st0" d="M67.99,14.12c-5.44-2.02-16.79,7.2-16.26,16.94c0.23,4.32,2.86,9.68,6.87,10.55
	c5.66,1.23,12.6-6.78,13.65-14.61C72.86,22.41,71.77,15.53,67.99,14.12z"/>
<circle class="st1" cx="27.11" cy="32.07" r="2.37"/>
<ellipse class="st1" cx="66.78" cy="24.91" rx="2.08" ry="2.37"/>
</svg>
