<?xml version="1.0" encoding="utf-8"?>
<!-- Generator: Adobe Illustrator 26.0.0, SVG Export Plug-In . SVG Version: 6.00 Build 0)  -->
<svg version="1.1" id="Layer_1" xmlns="http://www.w3.org/2000/svg" xmlns:xlink="http://www.w3.org/1999/xlink" x="0px" y="0px"
	 viewBox="0 0 90 65" style="enable-background:new 0 0 90 65;" xml:space="preserve">
<style type="text/css">
	.st0{fill:none;stroke:#000000;stroke-width:2;stroke-miterlimit:10;}
</style>
<path class="st0" d="M31.56,19c-7.08-4.79-23.22,2.93-24.26,13.42c-0.45,4.59,1.97,9.88,6.19,12.13c7.3,3.89,18.64-2.02,21.42-10.84
	C36.47,28.8,35.74,21.82,31.56,19z"/>
<path class="st0" d="M77.24,17.97c-5.31-2.69-17.16,4.2-19.1,13.94c-0.95,4.8,0.13,12.14,5.42,14.97c3.68,1.97,8.32,1.17,11.35-0.77
	C83.96,40.31,83.68,21.23,77.24,17.97z"/>
<path class="st0" d="M61.85,32.52c-1.44,3.61-0.68,7.18,1.55,8.81c0.88,0.64,2.68,1.48,4.06,0.77c3.65-1.86,0.82-12.64,2.42-13.06
	c1.63-0.44,4.71,10.69,6.77,10.35c2.27-0.36,4.74-14.9-0.77-17.52c-3.57-1.69-9.84,1.93-12,6.97c-1.55,3.62-1.17,8.43,0.39,8.9
	c1.36,0.42,2.19-6.6,8.23-10.65c1.2-0.8,2.33-1.31,2.23-1.65c-0.26-0.82-7.67,0.33-7.74,1.74c-0.08,1.39,6.99,1.16,8.32,4.84
	c1.21,3.33-2.85,8.29-4.06,9.77c-0.86,1.06-1.69,1.86-2.32,2.42"/>
<path class="st0" d="M12.4,29.9c2.45,6.62,4.26,7.79,5.42,7.74c3.15-0.13,4.27-9.29,7.35-9.29c2.73,0,3.86,7.17,5.61,6.97
	c2.06-0.24,4.73-10.61,0.77-13.16c-2.64-1.7-8.4-0.01-12,5.61"/>
<path class="st0" d="M28.08,26.81c1.17,5.96,0.46,11.01-1.89,12.05c-3.47,1.54-11.53-5.28-10.31-10.31
	c1.23-5.05,11.55-7.12,13.16-4.84c2.4,3.39-12.32,19.54-14.52,18.19c-1.64-1,2.23-12.73,5.23-12.58c2.72,0.13,5.53,10.11,3.39,11.56
	c-0.51,0.34-1.19,0.14-2.03-0.15C14.37,38.42,11,37.26,10.23,34.4c-1.16-4.27,3.58-10.35,9.48-11.23c4.09-0.61,8.32,1.34,11.08,4.98
	"/>
</svg>
