<?xml version="1.0" encoding="utf-8"?>
<!-- Generator: Adobe Illustrator 26.0.0, SVG Export Plug-In . SVG Version: 6.00 Build 0)  -->
<svg version="1.1" id="Layer_1" xmlns="http://www.w3.org/2000/svg" xmlns:xlink="http://www.w3.org/1999/xlink" x="0px" y="0px"
	 viewBox="0 0 90 65" style="enable-background:new 0 0 90 65;" xml:space="preserve">
<style type="text/css">
	.st0{fill:none;stroke:#000000;stroke-width:2;stroke-miterlimit:10;}
</style>
<path class="st0" d="M30.59,31.23c0.93-0.25,1.54,2.39,3.42,3.74c6.12,4.42,20.58-8.47,23.81-5.29c1.04,1.02,0.46,3.25,0,4.32
	c-3.41,7.91-24.71,8.58-27.81,2.45C29.03,34.52,29.65,31.48,30.59,31.23z"/>
<path class="st0" d="M28.45,26.8c-0.44,0.17-1.7,0.72-2.6,2.09c-0.83,1.27-0.89,2.53-0.89,3.01"/>
<path class="st0" d="M25.53,23.59c-0.42,0.22-3.17,1.74-3.86,4.99c-0.43,2.03,0.16,3.68,0.44,4.34"/>
<path class="st0" d="M61.81,26.58c0.27,0.4,0.62,1,0.86,1.78c0.22,0.74,0.28,1.39,0.28,1.85"/>
<path class="st0" d="M65.59,23.41c0.56,0.46,1.43,1.3,2.13,2.61c0.72,1.35,0.91,2.6,0.98,3.33"/>
</svg>
