<?xml version="1.0" encoding="utf-8"?>
<!-- Generator: Adobe Illustrator 26.0.0, SVG Export Plug-In . SVG Version: 6.00 Build 0)  -->
<svg version="1.1" id="Layer_1" xmlns="http://www.w3.org/2000/svg" xmlns:xlink="http://www.w3.org/1999/xlink" x="0px" y="0px"
	 viewBox="0 0 90 65" style="enable-background:new 0 0 90 65;" xml:space="preserve">
<style type="text/css">
	.st0{stroke:#000000;stroke-width:2;stroke-miterlimit:10;}
	.st1{fill:none;stroke:#000000;stroke-width:2;stroke-miterlimit:10;}
</style>
<circle class="st0" cx="29.68" cy="49.79" r="2.26"/>
<ellipse class="st0" cx="65.1" cy="47.7" rx="2.45" ry="2.1"/>
<path class="st1" d="M42.26,7.67c0.79,2.85,4,15.68-3.35,25.94c-1.54,2.15-3.29,3.83-5.03,5.16l0,0
	c-7.03-4.89-15.85-2.07-18.32,3.35c-2.08,4.55,0.1,11.38,6.06,14.84"/>
<path class="st1" d="M54.77,8.57c-1.2,2.84-5.3,13.48-0.52,24.13c1.25,2.78,2.85,4.99,4.39,6.71l0,0c6.5-4.29,14.33-1.57,16.34,3.12
	c1.76,4.08-0.55,10.4-6.41,13.26"/>
</svg>
