<?xml version="1.0" encoding="utf-8"?>
<!-- Generator: Adobe Illustrator 26.0.0, SVG Export Plug-In . SVG Version: 6.00 Build 0)  -->
<svg version="1.1" id="Layer_1" xmlns="http://www.w3.org/2000/svg" xmlns:xlink="http://www.w3.org/1999/xlink" x="0px" y="0px"
	 viewBox="0 0 90 65" style="enable-background:new 0 0 90 65;" xml:space="preserve">
<style type="text/css">
	.st0{fill:none;stroke:#000000;stroke-width:2;stroke-miterlimit:10;}
	.st1{stroke:#000000;stroke-width:2;stroke-miterlimit:10;}
</style>
<path class="st0" d="M47.44,13.37c-19-1.38-31.55,20.3-28.03,28.44c4.95,11.43,47.51,9.78,52.03-2.89
	C74.32,30.86,63.2,14.51,47.44,13.37z"/>
<path class="st1" d="M36.67,25.88c-2.66-0.7-6.36,2.74-6.39,6.39c-0.02,2.63,1.86,5.61,4.19,5.81c2.76,0.23,5.31-3.5,5.29-6.77
	C39.75,29.2,38.68,26.41,36.67,25.88z"/>
<path class="st1" d="M52.86,29.04c-2.66-0.14-4.89,2.75-4.77,5.48c0.1,2.42,2.06,5.03,4.65,4.97c2.61-0.07,4.41-2.84,4.39-5.29
	C57.1,31.79,55.31,29.17,52.86,29.04z"/>
</svg>
